<svg width="24" height="24" viewBox="0 0 24 24" fill="none" xmlns="http://www.w3.org/2000/svg">
<circle cx="12" cy="12" r="11.5" stroke="black"/>
<path d="M7.54691 14.2886C7.43013 14.5388 7.53832 14.8363 7.78856 14.9531C8.03879 15.0699 8.33631 14.9617 8.45309 14.7114L7.54691 14.2886ZM11.5 7L11.9531 6.78856C11.8709 6.61252 11.6943 6.5 11.5 6.5C11.3057 6.5 11.1291 6.61252 11.0469 6.78856L11.5 7ZM14.5469 14.7114C14.6637 14.9617 14.9612 15.0699 15.2114 14.9531C15.4617 14.8363 15.5699 14.5388 15.4531 14.2886L14.5469 14.7114ZM13.5 11.2857L13.9531 11.0743L13.9531 11.0743L13.5 11.2857ZM11.5 11.5C11.2239 11.5 11 11.7239 11 12C11 12.2761 11.2239 12.5 11.5 12.5V11.5ZM13.5 12.5C13.7761 12.5 14 12.2761 14 12C14 11.7239 13.7761 11.5 13.5 11.5V12.5ZM8.45309 14.7114L11.9531 7.21144L11.0469 6.78856L7.54691 14.2886L8.45309 14.7114ZM13.0469 11.4972L14.5469 14.7114L15.4531 14.2886L13.9531 11.0743L13.0469 11.4972ZM11.5 12.5H13.5V11.5H11.5V12.5ZM11.0469 7.21144L12.0469 9.3543L12.9531 8.93141L11.9531 6.78856L11.0469 7.21144ZM12.0469 9.3543L13.0469 11.4972L13.9531 11.0743L12.9531 8.93141L12.0469 9.3543Z" fill="black"/>
<path d="M11 12H12.5" stroke="black" stroke-linecap="square"/>
</svg>
