<svg width="24" height="23" viewBox="0 0 24 23" fill="none" xmlns="http://www.w3.org/2000/svg">
<path d="M23.3985 16.1031C22.3356 18.2174 20.5638 19.976 18.3293 21.1146C16.0081 22.2973 13.3229 22.7416 10.6942 22.3747C8.0655 22.0078 5.64909 20.8517 3.81935 19.0943C1.99031 17.3375 0.85081 15.0798 0.568766 12.6759C0.286769 10.2723 0.876449 7.84715 2.25223 5.77731C3.62866 3.70648 5.71674 2.10525 8.19714 1.23167C10.6778 0.358003 13.4048 0.263884 15.9507 0.964735C18.4334 1.6482 20.6007 3.04809 22.1371 4.94628L22.0292 6.94512L19.3676 6.65195C18.2569 5.3066 16.7147 4.32484 14.9662 3.84349C13.1466 3.34257 11.1986 3.4095 9.42374 4.03459C7.64862 4.65977 6.13988 5.81075 5.13912 7.31639C4.1377 8.82301 3.70345 10.5976 3.91045 12.3619C4.11741 14.1259 4.95235 15.7701 6.27529 17.0408C7.59755 18.3108 9.33346 19.1373 11.2099 19.3992C13.0863 19.6611 15.0059 19.345 16.6708 18.4966C18.2551 17.6893 19.5286 16.4407 20.3065 14.9237L22.4054 14.5507L23.3985 16.1031Z" stroke="black" stroke-linejoin="round"/>
<path d="M8.54691 14.2886C8.43013 14.5388 8.53832 14.8363 8.78856 14.9531C9.03879 15.0699 9.33631 14.9617 9.45309 14.7114L8.54691 14.2886ZM12.5 7L12.9531 6.78856C12.8709 6.61252 12.6943 6.5 12.5 6.5C12.3057 6.5 12.1291 6.61252 12.0469 6.78856L12.5 7ZM15.5469 14.7114C15.6637 14.9617 15.9612 15.0699 16.2114 14.9531C16.4617 14.8363 16.5699 14.5388 16.4531 14.2886L15.5469 14.7114ZM14.5 11.2857L14.9531 11.0743L14.9531 11.0743L14.5 11.2857ZM12.5 11.5C12.2239 11.5 12 11.7239 12 12C12 12.2761 12.2239 12.5 12.5 12.5V11.5ZM14.5 12.5C14.7761 12.5 15 12.2761 15 12C15 11.7239 14.7761 11.5 14.5 11.5V12.5ZM9.45309 14.7114L12.9531 7.21144L12.0469 6.78856L8.54691 14.2886L9.45309 14.7114ZM14.0469 11.4972L15.5469 14.7114L16.4531 14.2886L14.9531 11.0743L14.0469 11.4972ZM12.5 12.5H14.5V11.5H12.5V12.5ZM12.0469 7.21144L13.0469 9.3543L13.9531 8.93141L12.9531 6.78856L12.0469 7.21144ZM13.0469 9.3543L14.0469 11.4972L14.9531 11.0743L13.9531 8.93141L13.0469 9.3543Z" fill="black"/>
<path d="M12 12H13.5" stroke="black" stroke-linecap="square"/>
</svg>
